# vtk DataFile Version 2.0
vtk output
ASCII
DATASET POLYDATA
POINTS        888 float
 -3.0147E+00 -1.5147E+00 -2.3000E-01
  1.4700E-02 -1.5147E+00 -2.3000E-01
  1.4700E-02 -1.4841E+00 -2.3000E-01
  1.4700E-02 -1.4535E+00 -2.3000E-01
  1.4700E-02 -1.4229E+00 -2.3000E-01
  1.4700E-02 -1.3923E+00 -2.3000E-01
  1.4700E-02 -1.3617E+00 -2.3000E-01
  1.4700E-02 -1.3311E+00 -2.3000E-01
  1.4700E-02 -1.3005E+00 -2.3000E-01
  1.4700E-02 -1.2699E+00 -2.3000E-01
  1.4700E-02 -1.2393E+00 -2.3000E-01
  1.4700E-02 -1.2087E+00 -2.3000E-01
  1.4700E-02 -1.1781E+00 -2.3000E-01
  1.4700E-02 -1.1475E+00 -2.3000E-01
  1.4700E-02 -1.1169E+00 -2.3000E-01
  1.4700E-02 -1.0863E+00 -2.3000E-01
  1.4700E-02 -1.0557E+00 -2.3000E-01
  1.4700E-02 -1.0251E+00 -2.3000E-01
  1.4700E-02 -9.9450E-01 -2.3000E-01
  1.4700E-02 -9.6390E-01 -2.3000E-01
  1.4700E-02 -9.3330E-01 -2.3000E-01
  1.4700E-02 -9.0270E-01 -2.3000E-01
  1.4700E-02 -8.7210E-01 -2.3000E-01
  1.4700E-02 -8.4150E-01 -2.3000E-01
  1.4700E-02 -8.1090E-01 -2.3000E-01
  1.4700E-02 -7.8030E-01 -2.3000E-01
  1.4700E-02 -7.4970E-01 -2.3000E-01
  1.4700E-02 -7.1910E-01 -2.3000E-01
  1.4700E-02 -6.8850E-01 -2.3000E-01
  1.4700E-02 -6.5790E-01 -2.3000E-01
  1.4700E-02 -6.2730E-01 -2.3000E-01
  1.4700E-02 -5.9670E-01 -2.3000E-01
  1.4700E-02 -5.6610E-01 -2.3000E-01
  1.4700E-02 -5.3550E-01 -2.3000E-01
  1.4700E-02 -5.0490E-01 -2.3000E-01
  1.4700E-02 -4.7430E-01 -2.3000E-01
  1.4700E-02 -4.4370E-01 -2.3000E-01
  1.4700E-02 -4.1310E-01 -2.3000E-01
  1.4700E-02 -3.8250E-01 -2.3000E-01
  1.4700E-02 -3.5190E-01 -2.3000E-01
  1.4700E-02 -3.2130E-01 -2.3000E-01
  1.4700E-02 -2.9070E-01 -2.3000E-01
  1.4700E-02 -2.6010E-01 -2.3000E-01
  1.4700E-02 -2.2950E-01 -2.3000E-01
  1.4700E-02 -1.9890E-01 -2.3000E-01
  1.4700E-02 -1.6830E-01 -2.3000E-01
  1.4700E-02 -1.3770E-01 -2.3000E-01
  1.4700E-02 -1.0710E-01 -2.3000E-01
  1.4700E-02 -7.6500E-02 -2.3000E-01
  1.4700E-02 -4.5900E-02 -2.3000E-01
  1.4700E-02 -1.5300E-02 -2.3000E-01
  1.4700E-02  1.5300E-02 -2.3000E-01
  1.4700E-02  4.5900E-02 -2.3000E-01
  1.4700E-02  7.6500E-02 -2.3000E-01
  1.4700E-02  1.0710E-01 -2.3000E-01
  1.4700E-02  1.3770E-01 -2.3000E-01
  1.4700E-02  1.6830E-01 -2.3000E-01
  1.4700E-02  1.9890E-01 -2.3000E-01
  1.4700E-02  2.2950E-01 -2.3000E-01
  1.4700E-02  2.6010E-01 -2.3000E-01
  1.4700E-02  2.9070E-01 -2.3000E-01
  1.4700E-02  3.2130E-01 -2.3000E-01
  1.4700E-02  3.5190E-01 -2.3000E-01
  1.4700E-02  3.8250E-01 -2.3000E-01
  1.4700E-02  4.1310E-01 -2.3000E-01
  1.4700E-02  4.4370E-01 -2.3000E-01
  1.4700E-02  4.7430E-01 -2.3000E-01
  1.4700E-02  5.0490E-01 -2.3000E-01
  1.4700E-02  5.3550E-01 -2.3000E-01
  1.4700E-02  5.6610E-01 -2.3000E-01
  1.4700E-02  5.9670E-01 -2.3000E-01
  1.4700E-02  6.2730E-01 -2.3000E-01
  1.4700E-02  6.5790E-01 -2.3000E-01
  1.4700E-02  6.8850E-01 -2.3000E-01
  1.4700E-02  7.1910E-01 -2.3000E-01
  1.4700E-02  7.4970E-01 -2.3000E-01
  1.4700E-02  7.8030E-01 -2.3000E-01
  1.4700E-02  8.1090E-01 -2.3000E-01
  1.4700E-02  8.4150E-01 -2.3000E-01
  1.4700E-02  8.7210E-01 -2.3000E-01
  1.4700E-02  9.0270E-01 -2.3000E-01
  1.4700E-02  9.3330E-01 -2.3000E-01
  1.4700E-02  9.6390E-01 -2.3000E-01
  1.4700E-02  9.9450E-01 -2.3000E-01
  1.4700E-02  1.0251E+00 -2.3000E-01
  1.4700E-02  1.0557E+00 -2.3000E-01
  1.4700E-02  1.0863E+00 -2.3000E-01
  1.4700E-02  1.1169E+00 -2.3000E-01
  1.4700E-02  1.1475E+00 -2.3000E-01
  1.4700E-02  1.1781E+00 -2.3000E-01
  1.4700E-02  1.2087E+00 -2.3000E-01
  1.4700E-02  1.2393E+00 -2.3000E-01
  1.4700E-02  1.2699E+00 -2.3000E-01
  1.4700E-02  1.3005E+00 -2.3000E-01
  1.4700E-02  1.3311E+00 -2.3000E-01
  1.4700E-02  1.3617E+00 -2.3000E-01
  1.4700E-02  1.3923E+00 -2.3000E-01
  1.4700E-02  1.4229E+00 -2.3000E-01
  1.4700E-02  1.4535E+00 -2.3000E-01
  1.4700E-02  1.4841E+00 -2.3000E-01
  1.4700E-02  1.5147E+00 -2.3000E-01
 -1.5900E-02  1.5147E+00 -2.3000E-01
 -4.6500E-02  1.5147E+00 -2.3000E-01
 -7.7100E-02  1.5147E+00 -2.3000E-01
 -1.0770E-01  1.5147E+00 -2.3000E-01
 -1.3830E-01  1.5147E+00 -2.3000E-01
 -1.6890E-01  1.5147E+00 -2.3000E-01
 -1.9950E-01  1.5147E+00 -2.3000E-01
 -2.3010E-01  1.5147E+00 -2.3000E-01
 -2.6070E-01  1.5147E+00 -2.3000E-01
 -2.9130E-01  1.5147E+00 -2.3000E-01
 -3.2190E-01  1.5147E+00 -2.3000E-01
 -3.5250E-01  1.5147E+00 -2.3000E-01
 -3.8310E-01  1.5147E+00 -2.3000E-01
 -4.1370E-01  1.5147E+00 -2.3000E-01
 -4.4430E-01  1.5147E+00 -2.3000E-01
 -4.7490E-01  1.5147E+00 -2.3000E-01
 -5.0550E-01  1.5147E+00 -2.3000E-01
 -5.3610E-01  1.5147E+00 -2.3000E-01
 -5.6670E-01  1.5147E+00 -2.3000E-01
 -5.9730E-01  1.5147E+00 -2.3000E-01
 -6.2790E-01  1.5147E+00 -2.3000E-01
 -6.5850E-01  1.5147E+00 -2.3000E-01
 -6.8910E-01  1.5147E+00 -2.3000E-01
 -7.1970E-01  1.5147E+00 -2.3000E-01
 -7.5030E-01  1.5147E+00 -2.3000E-01
 -7.8090E-01  1.5147E+00 -2.3000E-01
 -8.1150E-01  1.5147E+00 -2.3000E-01
 -8.4210E-01  1.5147E+00 -2.3000E-01
 -8.7270E-01  1.5147E+00 -2.3000E-01
 -9.0330E-01  1.5147E+00 -2.3000E-01
 -9.3390E-01  1.5147E+00 -2.3000E-01
 -9.6450E-01  1.5147E+00 -2.3000E-01
 -9.9510E-01  1.5147E+00 -2.3000E-01
 -1.0257E+00  1.5147E+00 -2.3000E-01
 -1.0563E+00  1.5147E+00 -2.3000E-01
 -1.0869E+00  1.5147E+00 -2.3000E-01
 -1.1175E+00  1.5147E+00 -2.3000E-01
 -1.1481E+00  1.5147E+00 -2.3000E-01
 -1.1787E+00  1.5147E+00 -2.3000E-01
 -1.2093E+00  1.5147E+00 -2.3000E-01
 -1.2399E+00  1.5147E+00 -2.3000E-01
 -1.2705E+00  1.5147E+00 -2.3000E-01
 -1.3011E+00  1.5147E+00 -2.3000E-01
 -1.3317E+00  1.5147E+00 -2.3000E-01
 -1.3623E+00  1.5147E+00 -2.3000E-01
 -1.3929E+00  1.5147E+00 -2.3000E-01
 -1.4235E+00  1.5147E+00 -2.3000E-01
 -1.4541E+00  1.5147E+00 -2.3000E-01
 -1.4847E+00  1.5147E+00 -2.3000E-01
 -1.5153E+00  1.5147E+00 -2.3000E-01
 -1.5459E+00  1.5147E+00 -2.3000E-01
 -1.5765E+00  1.5147E+00 -2.3000E-01
 -1.6071E+00  1.5147E+00 -2.3000E-01
 -1.6377E+00  1.5147E+00 -2.3000E-01
 -1.6683E+00  1.5147E+00 -2.3000E-01
 -1.6989E+00  1.5147E+00 -2.3000E-01
 -1.7295E+00  1.5147E+00 -2.3000E-01
 -1.7601E+00  1.5147E+00 -2.3000E-01
 -1.7907E+00  1.5147E+00 -2.3000E-01
 -1.8213E+00  1.5147E+00 -2.3000E-01
 -1.8519E+00  1.5147E+00 -2.3000E-01
 -1.8825E+00  1.5147E+00 -2.3000E-01
 -1.9131E+00  1.5147E+00 -2.3000E-01
 -1.9437E+00  1.5147E+00 -2.3000E-01
 -1.9743E+00  1.5147E+00 -2.3000E-01
 -2.0049E+00  1.5147E+00 -2.3000E-01
 -2.0355E+00  1.5147E+00 -2.3000E-01
 -2.0661E+00  1.5147E+00 -2.3000E-01
 -2.0967E+00  1.5147E+00 -2.3000E-01
 -2.1273E+00  1.5147E+00 -2.3000E-01
 -2.1579E+00  1.5147E+00 -2.3000E-01
 -2.1885E+00  1.5147E+00 -2.3000E-01
 -2.2191E+00  1.5147E+00 -2.3000E-01
 -2.2497E+00  1.5147E+00 -2.3000E-01
 -2.2803E+00  1.5147E+00 -2.3000E-01
 -2.3109E+00  1.5147E+00 -2.3000E-01
 -2.3415E+00  1.5147E+00 -2.3000E-01
 -2.3721E+00  1.5147E+00 -2.3000E-01
 -2.4027E+00  1.5147E+00 -2.3000E-01
 -2.4333E+00  1.5147E+00 -2.3000E-01
 -2.4639E+00  1.5147E+00 -2.3000E-01
 -2.4945E+00  1.5147E+00 -2.3000E-01
 -2.5251E+00  1.5147E+00 -2.3000E-01
 -2.5557E+00  1.5147E+00 -2.3000E-01
 -2.5863E+00  1.5147E+00 -2.3000E-01
 -2.6169E+00  1.5147E+00 -2.3000E-01
 -2.6475E+00  1.5147E+00 -2.3000E-01
 -2.6781E+00  1.5147E+00 -2.3000E-01
 -2.7087E+00  1.5147E+00 -2.3000E-01
 -2.7393E+00  1.5147E+00 -2.3000E-01
 -2.7699E+00  1.5147E+00 -2.3000E-01
 -2.8005E+00  1.5147E+00 -2.3000E-01
 -2.8311E+00  1.5147E+00 -2.3000E-01
 -2.8617E+00  1.5147E+00 -2.3000E-01
 -2.8923E+00  1.5147E+00 -2.3000E-01
 -2.9229E+00  1.5147E+00 -2.3000E-01
 -2.9535E+00  1.5147E+00 -2.3000E-01
 -2.9841E+00  1.5147E+00 -2.3000E-01
 -3.0147E+00  1.5147E+00 -2.3000E-01
 -3.0147E+00  1.4841E+00 -2.3000E-01
 -3.0147E+00  1.4535E+00 -2.3000E-01
 -3.0147E+00  1.4229E+00 -2.3000E-01
 -3.0147E+00  1.3923E+00 -2.3000E-01
 -3.0147E+00  1.3617E+00 -2.3000E-01
 -3.0147E+00  1.3311E+00 -2.3000E-01
 -3.0147E+00  1.3005E+00 -2.3000E-01
 -3.0147E+00  1.2699E+00 -2.3000E-01
 -3.0147E+00  1.2393E+00 -2.3000E-01
 -3.0147E+00  1.2087E+00 -2.3000E-01
 -3.0147E+00  1.1781E+00 -2.3000E-01
 -3.0147E+00  1.1475E+00 -2.3000E-01
 -3.0147E+00  1.1169E+00 -2.3000E-01
 -2.9928E+00  1.0950E+00 -2.3000E-01
 -5.3610E-01  1.0950E+00 -2.3000E-01
 -5.3000E-01  1.0863E+00 -2.3000E-01
 -5.3000E-01  1.0618E+00 -2.3000E-01
 -5.3000E-01  1.0557E+00 -2.3000E-01
 -5.3000E-01  1.0312E+00 -2.3000E-01
 -5.3000E-01  1.0251E+00 -2.3000E-01
 -5.3000E-01  1.0006E+00 -2.3000E-01
 -5.3000E-01  9.9450E-01 -2.3000E-01
 -5.3000E-01  9.7000E-01 -2.3000E-01
 -5.3000E-01  9.6390E-01 -2.3000E-01
 -5.3000E-01  9.3940E-01 -2.3000E-01
 -5.3000E-01  9.3330E-01 -2.3000E-01
 -5.3000E-01  9.0880E-01 -2.3000E-01
 -5.3000E-01  9.0270E-01 -2.3000E-01
 -5.3000E-01  8.7820E-01 -2.3000E-01
 -5.3000E-01  8.7210E-01 -2.3000E-01
 -5.3000E-01  8.4760E-01 -2.3000E-01
 -5.3000E-01  8.4150E-01 -2.3000E-01
 -5.3000E-01  8.1700E-01 -2.3000E-01
 -5.3000E-01  8.1090E-01 -2.3000E-01
 -5.3000E-01  7.8640E-01 -2.3000E-01
 -5.3000E-01  7.8030E-01 -2.3000E-01
 -5.3000E-01  7.5580E-01 -2.3000E-01
 -5.3000E-01  7.4970E-01 -2.3000E-01
 -5.3000E-01  7.2520E-01 -2.3000E-01
 -5.3000E-01  7.1910E-01 -2.3000E-01
 -5.3000E-01  6.9460E-01 -2.3000E-01
 -5.3000E-01  6.8850E-01 -2.3000E-01
 -5.3000E-01  6.6400E-01 -2.3000E-01
 -5.3000E-01  6.5790E-01 -2.3000E-01
 -5.3000E-01  6.3340E-01 -2.3000E-01
 -5.3000E-01  6.2730E-01 -2.3000E-01
 -5.3000E-01  6.0280E-01 -2.3000E-01
 -5.3000E-01  5.9670E-01 -2.3000E-01
 -5.3000E-01  5.7220E-01 -2.3000E-01
 -5.3000E-01  5.6610E-01 -2.3000E-01
 -5.3000E-01  5.4160E-01 -2.3000E-01
 -5.3000E-01  5.3550E-01 -2.3000E-01
 -5.3000E-01  5.1100E-01 -2.3000E-01
 -5.3000E-01  5.0490E-01 -2.3000E-01
 -5.3000E-01  4.8040E-01 -2.3000E-01
 -5.3000E-01  4.7430E-01 -2.3000E-01
 -5.3000E-01  4.4980E-01 -2.3000E-01
 -5.3000E-01  4.4370E-01 -2.3000E-01
 -5.3000E-01  4.1920E-01 -2.3000E-01
 -5.3000E-01  4.1310E-01 -2.3000E-01
 -5.3000E-01  3.8860E-01 -2.3000E-01
 -5.3000E-01  3.8250E-01 -2.3000E-01
 -5.3000E-01  3.5800E-01 -2.3000E-01
 -5.3000E-01  3.5190E-01 -2.3000E-01
 -5.3000E-01  3.2740E-01 -2.3000E-01
 -5.3000E-01  3.2130E-01 -2.3000E-01
 -5.3000E-01  2.9680E-01 -2.3000E-01
 -5.3000E-01  2.9070E-01 -2.3000E-01
 -5.3000E-01  2.6620E-01 -2.3000E-01
 -5.3000E-01  2.6010E-01 -2.3000E-01
 -5.3000E-01  2.3560E-01 -2.3000E-01
 -5.3000E-01  2.2950E-01 -2.3000E-01
 -5.3000E-01  2.0500E-01 -2.3000E-01
 -5.3000E-01  1.9890E-01 -2.3000E-01
 -5.3000E-01  1.7440E-01 -2.3000E-01
 -5.3000E-01  1.6830E-01 -2.3000E-01
 -5.3000E-01  1.4380E-01 -2.3000E-01
 -5.3000E-01  1.3770E-01 -2.3000E-01
 -5.3000E-01  1.1320E-01 -2.3000E-01
 -5.3000E-01  1.0710E-01 -2.3000E-01
 -5.3000E-01  8.2600E-02 -2.3000E-01
 -5.3000E-01  7.6500E-02 -2.3000E-01
 -5.3000E-01  5.2000E-02 -2.3000E-01
 -5.3000E-01  4.5900E-02 -2.3000E-01
 -5.3000E-01  2.1400E-02 -2.3000E-01
 -5.3000E-01  1.5300E-02 -2.3000E-01
 -5.3000E-01 -9.2000E-03 -2.3000E-01
 -5.3000E-01 -1.5300E-02 -2.3000E-01
 -5.3000E-01 -3.9800E-02 -2.3000E-01
 -5.3000E-01 -4.5900E-02 -2.3000E-01
 -5.3000E-01 -7.0400E-02 -2.3000E-01
 -5.3000E-01 -7.6500E-02 -2.3000E-01
 -5.3000E-01 -1.0100E-01 -2.3000E-01
 -5.3000E-01 -1.0710E-01 -2.3000E-01
 -5.3000E-01 -1.3160E-01 -2.3000E-01
 -5.3000E-01 -1.3770E-01 -2.3000E-01
 -5.3000E-01 -1.6220E-01 -2.3000E-01
 -5.3000E-01 -1.6830E-01 -2.3000E-01
 -5.3000E-01 -1.9280E-01 -2.3000E-01
 -5.3000E-01 -1.9890E-01 -2.3000E-01
 -5.3000E-01 -2.2340E-01 -2.3000E-01
 -5.3000E-01 -2.2950E-01 -2.3000E-01
 -5.3000E-01 -2.5400E-01 -2.3000E-01
 -5.3000E-01 -2.6010E-01 -2.3000E-01
 -5.3000E-01 -2.8460E-01 -2.3000E-01
 -5.3000E-01 -2.9070E-01 -2.3000E-01
 -5.3000E-01 -3.1520E-01 -2.3000E-01
 -5.3000E-01 -3.2130E-01 -2.3000E-01
 -5.3000E-01 -3.4580E-01 -2.3000E-01
 -5.3000E-01 -3.5190E-01 -2.3000E-01
 -5.3000E-01 -3.7640E-01 -2.3000E-01
 -5.3000E-01 -3.8250E-01 -2.3000E-01
 -5.3000E-01 -4.0700E-01 -2.3000E-01
 -5.3000E-01 -4.1310E-01 -2.3000E-01
 -5.3000E-01 -4.3760E-01 -2.3000E-01
 -5.3000E-01 -4.4370E-01 -2.3000E-01
 -5.3000E-01 -4.6820E-01 -2.3000E-01
 -5.3000E-01 -4.7430E-01 -2.3000E-01
 -5.3000E-01 -4.9880E-01 -2.3000E-01
 -5.3000E-01 -5.0490E-01 -2.3000E-01
 -5.3000E-01 -5.2940E-01 -2.3000E-01
 -5.3000E-01 -5.3550E-01 -2.3000E-01
 -5.3000E-01 -5.6000E-01 -2.3000E-01
 -5.3000E-01 -5.6610E-01 -2.3000E-01
 -5.3000E-01 -5.9060E-01 -2.3000E-01
 -5.3000E-01 -5.9670E-01 -2.3000E-01
 -5.3000E-01 -6.2120E-01 -2.3000E-01
 -5.3000E-01 -6.2730E-01 -2.3000E-01
 -5.3000E-01 -6.5180E-01 -2.3000E-01
 -5.3000E-01 -6.5790E-01 -2.3000E-01
 -5.3000E-01 -6.8240E-01 -2.3000E-01
 -5.3000E-01 -6.8850E-01 -2.3000E-01
 -5.3000E-01 -7.1300E-01 -2.3000E-01
 -5.3000E-01 -7.1910E-01 -2.3000E-01
 -5.3000E-01 -7.4360E-01 -2.3000E-01
 -5.3000E-01 -7.4970E-01 -2.3000E-01
 -5.3000E-01 -7.7420E-01 -2.3000E-01
 -5.3000E-01 -7.8030E-01 -2.3000E-01
 -5.3000E-01 -8.0480E-01 -2.3000E-01
 -5.3000E-01 -8.1090E-01 -2.3000E-01
 -5.3000E-01 -8.3540E-01 -2.3000E-01
 -5.3000E-01 -8.4150E-01 -2.3000E-01
 -5.3000E-01 -8.6600E-01 -2.3000E-01
 -5.3000E-01 -8.7210E-01 -2.3000E-01
 -5.3610E-01 -8.7700E-01 -2.3000E-01
 -5.6180E-01 -8.7700E-01 -2.3000E-01
 -5.6670E-01 -8.7700E-01 -2.3000E-01
 -5.9240E-01 -8.7700E-01 -2.3000E-01
 -5.9730E-01 -8.7700E-01 -2.3000E-01
 -6.2300E-01 -8.7700E-01 -2.3000E-01
 -6.2790E-01 -8.7700E-01 -2.3000E-01
 -6.5360E-01 -8.7700E-01 -2.3000E-01
 -6.5850E-01 -8.7700E-01 -2.3000E-01
 -6.8420E-01 -8.7700E-01 -2.3000E-01
 -6.8910E-01 -8.7700E-01 -2.3000E-01
 -7.1480E-01 -8.7700E-01 -2.3000E-01
 -7.1970E-01 -8.7700E-01 -2.3000E-01
 -7.4540E-01 -8.7700E-01 -2.3000E-01
 -7.5030E-01 -8.7700E-01 -2.3000E-01
 -7.7600E-01 -8.7700E-01 -2.3000E-01
 -7.8090E-01 -8.7700E-01 -2.3000E-01
 -8.0660E-01 -8.7700E-01 -2.3000E-01
 -8.1150E-01 -8.7700E-01 -2.3000E-01
 -8.3720E-01 -8.7700E-01 -2.3000E-01
 -8.4210E-01 -8.7700E-01 -2.3000E-01
 -8.6780E-01 -8.7700E-01 -2.3000E-01
 -8.7270E-01 -8.7700E-01 -2.3000E-01
 -8.9840E-01 -8.7700E-01 -2.3000E-01
 -9.0330E-01 -8.7700E-01 -2.3000E-01
 -9.2900E-01 -8.7700E-01 -2.3000E-01
 -9.3390E-01 -8.7700E-01 -2.3000E-01
 -9.5960E-01 -8.7700E-01 -2.3000E-01
 -9.6450E-01 -8.7700E-01 -2.3000E-01
 -9.9020E-01 -8.7700E-01 -2.3000E-01
 -9.9510E-01 -8.7700E-01 -2.3000E-01
 -1.0208E+00 -8.7700E-01 -2.3000E-01
 -1.0257E+00 -8.7700E-01 -2.3000E-01
 -1.0514E+00 -8.7700E-01 -2.3000E-01
 -1.0563E+00 -8.7700E-01 -2.3000E-01
 -1.0820E+00 -8.7700E-01 -2.3000E-01
 -1.0869E+00 -8.7700E-01 -2.3000E-01
 -1.1126E+00 -8.7700E-01 -2.3000E-01
 -1.1175E+00 -8.7700E-01 -2.3000E-01
 -1.1432E+00 -8.7700E-01 -2.3000E-01
 -1.1481E+00 -8.7700E-01 -2.3000E-01
 -1.1738E+00 -8.7700E-01 -2.3000E-01
 -1.1787E+00 -8.7700E-01 -2.3000E-01
 -1.2044E+00 -8.7700E-01 -2.3000E-01
 -1.2093E+00 -8.7700E-01 -2.3000E-01
 -1.2350E+00 -8.7700E-01 -2.3000E-01
 -1.2399E+00 -8.7700E-01 -2.3000E-01
 -1.2656E+00 -8.7700E-01 -2.3000E-01
 -1.2705E+00 -8.7700E-01 -2.3000E-01
 -1.2962E+00 -8.7700E-01 -2.3000E-01
 -1.3011E+00 -8.7700E-01 -2.3000E-01
 -1.3268E+00 -8.7700E-01 -2.3000E-01
 -1.3317E+00 -8.7700E-01 -2.3000E-01
 -1.3574E+00 -8.7700E-01 -2.3000E-01
 -1.3623E+00 -8.7700E-01 -2.3000E-01
 -1.3880E+00 -8.7700E-01 -2.3000E-01
 -1.3929E+00 -8.7700E-01 -2.3000E-01
 -1.4186E+00 -8.7700E-01 -2.3000E-01
 -1.4235E+00 -8.7700E-01 -2.3000E-01
 -1.4492E+00 -8.7700E-01 -2.3000E-01
 -1.4541E+00 -8.7700E-01 -2.3000E-01
 -1.4798E+00 -8.7700E-01 -2.3000E-01
 -1.4847E+00 -8.7700E-01 -2.3000E-01
 -1.5104E+00 -8.7700E-01 -2.3000E-01
 -1.5153E+00 -8.7700E-01 -2.3000E-01
 -1.5410E+00 -8.7700E-01 -2.3000E-01
 -1.5459E+00 -8.7700E-01 -2.3000E-01
 -1.5716E+00 -8.7700E-01 -2.3000E-01
 -1.5765E+00 -8.7700E-01 -2.3000E-01
 -1.6022E+00 -8.7700E-01 -2.3000E-01
 -1.6071E+00 -8.7700E-01 -2.3000E-01
 -1.6328E+00 -8.7700E-01 -2.3000E-01
 -1.6377E+00 -8.7700E-01 -2.3000E-01
 -1.6634E+00 -8.7700E-01 -2.3000E-01
 -1.6683E+00 -8.7700E-01 -2.3000E-01
 -1.6940E+00 -8.7700E-01 -2.3000E-01
 -1.6989E+00 -8.7700E-01 -2.3000E-01
 -1.7246E+00 -8.7700E-01 -2.3000E-01
 -1.7295E+00 -8.7700E-01 -2.3000E-01
 -1.7552E+00 -8.7700E-01 -2.3000E-01
 -1.7601E+00 -8.7700E-01 -2.3000E-01
 -1.7858E+00 -8.7700E-01 -2.3000E-01
 -1.7907E+00 -8.7700E-01 -2.3000E-01
 -1.8164E+00 -8.7700E-01 -2.3000E-01
 -1.8213E+00 -8.7700E-01 -2.3000E-01
 -1.8470E+00 -8.7700E-01 -2.3000E-01
 -1.8519E+00 -8.7700E-01 -2.3000E-01
 -1.8776E+00 -8.7700E-01 -2.3000E-01
 -1.8825E+00 -8.7700E-01 -2.3000E-01
 -1.9082E+00 -8.7700E-01 -2.3000E-01
 -1.9131E+00 -8.7700E-01 -2.3000E-01
 -1.9388E+00 -8.7700E-01 -2.3000E-01
 -1.9437E+00 -8.7700E-01 -2.3000E-01
 -1.9694E+00 -8.7700E-01 -2.3000E-01
 -1.9743E+00 -8.7700E-01 -2.3000E-01
 -2.0000E+00 -8.7700E-01 -2.3000E-01
 -2.0049E+00 -8.7700E-01 -2.3000E-01
 -2.0306E+00 -8.7700E-01 -2.3000E-01
 -2.0355E+00 -8.7700E-01 -2.3000E-01
 -2.0612E+00 -8.7700E-01 -2.3000E-01
 -2.0661E+00 -8.7700E-01 -2.3000E-01
 -2.0918E+00 -8.7700E-01 -2.3000E-01
 -2.0967E+00 -8.7700E-01 -2.3000E-01
 -2.1224E+00 -8.7700E-01 -2.3000E-01
 -2.1273E+00 -8.7700E-01 -2.3000E-01
 -2.1530E+00 -8.7700E-01 -2.3000E-01
 -2.1579E+00 -8.7700E-01 -2.3000E-01
 -2.1836E+00 -8.7700E-01 -2.3000E-01
 -2.1885E+00 -8.7700E-01 -2.3000E-01
 -2.2142E+00 -8.7700E-01 -2.3000E-01
 -2.2191E+00 -8.7700E-01 -2.3000E-01
 -2.2448E+00 -8.7700E-01 -2.3000E-01
 -2.2497E+00 -8.7700E-01 -2.3000E-01
 -2.2754E+00 -8.7700E-01 -2.3000E-01
 -2.2803E+00 -8.7700E-01 -2.3000E-01
 -2.3060E+00 -8.7700E-01 -2.3000E-01
 -2.3109E+00 -8.7700E-01 -2.3000E-01
 -2.3366E+00 -8.7700E-01 -2.3000E-01
 -2.3415E+00 -8.7700E-01 -2.3000E-01
 -2.3672E+00 -8.7700E-01 -2.3000E-01
 -2.3721E+00 -8.7700E-01 -2.3000E-01
 -2.3978E+00 -8.7700E-01 -2.3000E-01
 -2.4027E+00 -8.7700E-01 -2.3000E-01
 -2.4284E+00 -8.7700E-01 -2.3000E-01
 -2.4333E+00 -8.7700E-01 -2.3000E-01
 -2.4590E+00 -8.7700E-01 -2.3000E-01
 -2.4639E+00 -8.7700E-01 -2.3000E-01
 -2.4896E+00 -8.7700E-01 -2.3000E-01
 -2.4945E+00 -8.7700E-01 -2.3000E-01
 -2.5202E+00 -8.7700E-01 -2.3000E-01
 -2.5251E+00 -8.7700E-01 -2.3000E-01
 -2.5508E+00 -8.7700E-01 -2.3000E-01
 -2.5557E+00 -8.7700E-01 -2.3000E-01
 -2.5814E+00 -8.7700E-01 -2.3000E-01
 -2.5863E+00 -8.7700E-01 -2.3000E-01
 -2.6120E+00 -8.7700E-01 -2.3000E-01
 -2.6169E+00 -8.7700E-01 -2.3000E-01
 -2.6426E+00 -8.7700E-01 -2.3000E-01
 -2.6475E+00 -8.7700E-01 -2.3000E-01
 -2.6732E+00 -8.7700E-01 -2.3000E-01
 -2.6781E+00 -8.7700E-01 -2.3000E-01
 -2.7038E+00 -8.7700E-01 -2.3000E-01
 -2.7087E+00 -8.7700E-01 -2.3000E-01
 -2.7344E+00 -8.7700E-01 -2.3000E-01
 -2.7393E+00 -8.7700E-01 -2.3000E-01
 -2.7650E+00 -8.7700E-01 -2.3000E-01
 -2.7699E+00 -8.7700E-01 -2.3000E-01
 -2.7956E+00 -8.7700E-01 -2.3000E-01
 -2.8005E+00 -8.7700E-01 -2.3000E-01
 -2.8262E+00 -8.7700E-01 -2.3000E-01
 -2.8311E+00 -8.7700E-01 -2.3000E-01
 -2.8568E+00 -8.7700E-01 -2.3000E-01
 -2.8617E+00 -8.7700E-01 -2.3000E-01
 -2.8874E+00 -8.7700E-01 -2.3000E-01
 -2.8923E+00 -8.7700E-01 -2.3000E-01
 -2.9180E+00 -8.7700E-01 -2.3000E-01
 -2.9229E+00 -8.7700E-01 -2.3000E-01
 -2.9486E+00 -8.7700E-01 -2.3000E-01
 -2.9535E+00 -8.7700E-01 -2.3000E-01
 -2.9792E+00 -8.7700E-01 -2.3000E-01
 -2.9841E+00 -8.7700E-01 -2.3000E-01
 -3.0098E+00 -8.7700E-01 -2.3000E-01
 -3.0147E+00 -8.7700E-01 -2.3000E-01
 -3.0147E+00 -9.0270E-01 -2.3000E-01
 -3.0147E+00 -9.3330E-01 -2.3000E-01
 -3.0147E+00 -9.6390E-01 -2.3000E-01
 -3.0147E+00 -9.9450E-01 -2.3000E-01
 -3.0147E+00 -1.0251E+00 -2.3000E-01
 -3.0147E+00 -1.0557E+00 -2.3000E-01
 -3.0147E+00 -1.0863E+00 -2.3000E-01
 -3.0147E+00 -1.1169E+00 -2.3000E-01
 -3.0147E+00 -1.1475E+00 -2.3000E-01
 -3.0147E+00 -1.1781E+00 -2.3000E-01
 -3.0147E+00 -1.2087E+00 -2.3000E-01
 -3.0147E+00 -1.2393E+00 -2.3000E-01
 -3.0147E+00 -1.2699E+00 -2.3000E-01
 -3.0147E+00 -1.3005E+00 -2.3000E-01
 -3.0147E+00 -1.3311E+00 -2.3000E-01
 -3.0147E+00 -1.3617E+00 -2.3000E-01
 -3.0147E+00 -1.3923E+00 -2.3000E-01
 -3.0147E+00 -1.4229E+00 -2.3000E-01
 -3.0147E+00 -1.4535E+00 -2.3000E-01
 -3.0147E+00 -1.4841E+00 -2.3000E-01
 -3.0147E+00 -1.5147E+00 -2.3000E-01
 -3.0147E+00 -8.7700E-01 -2.3000E-01
 -5.3120E-01 -8.7700E-01 -2.3000E-01
 -5.3000E-01 -8.7210E-01 -2.3000E-01
 -5.3000E-01 -8.6600E-01 -2.3000E-01
 -5.3000E-01 -8.4150E-01 -2.3000E-01
 -5.3000E-01 -8.3540E-01 -2.3000E-01
 -5.3000E-01 -8.1090E-01 -2.3000E-01
 -5.3000E-01 -8.0480E-01 -2.3000E-01
 -5.3000E-01 -7.8030E-01 -2.3000E-01
 -5.3000E-01 -7.7420E-01 -2.3000E-01
 -5.3000E-01 -7.4970E-01 -2.3000E-01
 -5.3000E-01 -7.4360E-01 -2.3000E-01
 -5.3000E-01 -7.1910E-01 -2.3000E-01
 -5.3000E-01 -7.1300E-01 -2.3000E-01
 -5.3000E-01 -6.8850E-01 -2.3000E-01
 -5.3000E-01 -6.8240E-01 -2.3000E-01
 -5.3000E-01 -6.5790E-01 -2.3000E-01
 -5.3000E-01 -6.5180E-01 -2.3000E-01
 -5.3000E-01 -6.2730E-01 -2.3000E-01
 -5.3000E-01 -6.2120E-01 -2.3000E-01
 -5.3000E-01 -5.9670E-01 -2.3000E-01
 -5.3000E-01 -5.9060E-01 -2.3000E-01
 -5.3000E-01 -5.6610E-01 -2.3000E-01
 -5.3000E-01 -5.6000E-01 -2.3000E-01
 -5.3000E-01 -5.3550E-01 -2.3000E-01
 -5.3000E-01 -5.2940E-01 -2.3000E-01
 -5.3000E-01 -5.0490E-01 -2.3000E-01
 -5.3000E-01 -4.9880E-01 -2.3000E-01
 -5.3000E-01 -4.7430E-01 -2.3000E-01
 -5.3000E-01 -4.6820E-01 -2.3000E-01
 -5.3000E-01 -4.4370E-01 -2.3000E-01
 -5.3000E-01 -4.3760E-01 -2.3000E-01
 -5.3000E-01 -4.1310E-01 -2.3000E-01
 -5.3000E-01 -4.0700E-01 -2.3000E-01
 -5.3000E-01 -3.8250E-01 -2.3000E-01
 -5.3000E-01 -3.7640E-01 -2.3000E-01
 -5.3000E-01 -3.5190E-01 -2.3000E-01
 -5.3000E-01 -3.4580E-01 -2.3000E-01
 -5.3000E-01 -3.2130E-01 -2.3000E-01
 -5.3000E-01 -3.1520E-01 -2.3000E-01
 -5.3000E-01 -2.9070E-01 -2.3000E-01
 -5.3000E-01 -2.8460E-01 -2.3000E-01
 -5.3000E-01 -2.6010E-01 -2.3000E-01
 -5.3000E-01 -2.5400E-01 -2.3000E-01
 -5.3000E-01 -2.2950E-01 -2.3000E-01
 -5.3000E-01 -2.2340E-01 -2.3000E-01
 -5.3000E-01 -1.9890E-01 -2.3000E-01
 -5.3000E-01 -1.9280E-01 -2.3000E-01
 -5.3000E-01 -1.6830E-01 -2.3000E-01
 -5.3000E-01 -1.6220E-01 -2.3000E-01
 -5.3000E-01 -1.3770E-01 -2.3000E-01
 -5.3000E-01 -1.3160E-01 -2.3000E-01
 -5.3000E-01 -1.0710E-01 -2.3000E-01
 -5.3000E-01 -1.0100E-01 -2.3000E-01
 -5.3000E-01 -7.6500E-02 -2.3000E-01
 -5.3000E-01 -7.0400E-02 -2.3000E-01
 -5.3000E-01 -4.5900E-02 -2.3000E-01
 -5.3000E-01 -3.9800E-02 -2.3000E-01
 -5.3000E-01 -1.5300E-02 -2.3000E-01
 -5.3000E-01 -9.2000E-03 -2.3000E-01
 -5.3000E-01  1.5300E-02 -2.3000E-01
 -5.3000E-01  2.1400E-02 -2.3000E-01
 -5.3000E-01  4.5900E-02 -2.3000E-01
 -5.3000E-01  5.2000E-02 -2.3000E-01
 -5.3000E-01  7.6500E-02 -2.3000E-01
 -5.3000E-01  8.2600E-02 -2.3000E-01
 -5.3000E-01  1.0710E-01 -2.3000E-01
 -5.3000E-01  1.1320E-01 -2.3000E-01
 -5.3000E-01  1.3770E-01 -2.3000E-01
 -5.3000E-01  1.4380E-01 -2.3000E-01
 -5.3000E-01  1.6830E-01 -2.3000E-01
 -5.3000E-01  1.7440E-01 -2.3000E-01
 -5.3000E-01  1.9890E-01 -2.3000E-01
 -5.3000E-01  2.0500E-01 -2.3000E-01
 -5.3000E-01  2.2950E-01 -2.3000E-01
 -5.3000E-01  2.3560E-01 -2.3000E-01
 -5.3000E-01  2.6010E-01 -2.3000E-01
 -5.3000E-01  2.6620E-01 -2.3000E-01
 -5.3000E-01  2.9070E-01 -2.3000E-01
 -5.3000E-01  2.9680E-01 -2.3000E-01
 -5.3000E-01  3.2130E-01 -2.3000E-01
 -5.3000E-01  3.2740E-01 -2.3000E-01
 -5.3000E-01  3.5190E-01 -2.3000E-01
 -5.3000E-01  3.5800E-01 -2.3000E-01
 -5.3000E-01  3.8250E-01 -2.3000E-01
 -5.3000E-01  3.8860E-01 -2.3000E-01
 -5.3000E-01  4.1310E-01 -2.3000E-01
 -5.3000E-01  4.1920E-01 -2.3000E-01
 -5.3000E-01  4.4370E-01 -2.3000E-01
 -5.3000E-01  4.4980E-01 -2.3000E-01
 -5.3000E-01  4.7430E-01 -2.3000E-01
 -5.3000E-01  4.8040E-01 -2.3000E-01
 -5.3000E-01  5.0490E-01 -2.3000E-01
 -5.3000E-01  5.1100E-01 -2.3000E-01
 -5.3000E-01  5.3550E-01 -2.3000E-01
 -5.3000E-01  5.4160E-01 -2.3000E-01
 -5.3000E-01  5.6610E-01 -2.3000E-01
 -5.3000E-01  5.7220E-01 -2.3000E-01
 -5.3000E-01  5.9670E-01 -2.3000E-01
 -5.3000E-01  6.0280E-01 -2.3000E-01
 -5.3000E-01  6.2730E-01 -2.3000E-01
 -5.3000E-01  6.3340E-01 -2.3000E-01
 -5.3000E-01  6.5790E-01 -2.3000E-01
 -5.3000E-01  6.6400E-01 -2.3000E-01
 -5.3000E-01  6.8850E-01 -2.3000E-01
 -5.3000E-01  6.9460E-01 -2.3000E-01
 -5.3000E-01  7.1910E-01 -2.3000E-01
 -5.3000E-01  7.2520E-01 -2.3000E-01
 -5.3000E-01  7.4970E-01 -2.3000E-01
 -5.3000E-01  7.5580E-01 -2.3000E-01
 -5.3000E-01  7.8030E-01 -2.3000E-01
 -5.3000E-01  7.8640E-01 -2.3000E-01
 -5.3000E-01  8.1090E-01 -2.3000E-01
 -5.3000E-01  8.1700E-01 -2.3000E-01
 -5.3000E-01  8.4150E-01 -2.3000E-01
 -5.3000E-01  8.4760E-01 -2.3000E-01
 -5.3000E-01  8.7210E-01 -2.3000E-01
 -5.3000E-01  8.7820E-01 -2.3000E-01
 -5.3000E-01  9.0270E-01 -2.3000E-01
 -5.3000E-01  9.0880E-01 -2.3000E-01
 -5.3000E-01  9.3330E-01 -2.3000E-01
 -5.3000E-01  9.3940E-01 -2.3000E-01
 -5.3000E-01  9.6390E-01 -2.3000E-01
 -5.3000E-01  9.7000E-01 -2.3000E-01
 -5.3000E-01  9.9450E-01 -2.3000E-01
 -5.3000E-01  1.0006E+00 -2.3000E-01
 -5.3000E-01  1.0251E+00 -2.3000E-01
 -5.3000E-01  1.0312E+00 -2.3000E-01
 -5.3000E-01  1.0557E+00 -2.3000E-01
 -5.3000E-01  1.0618E+00 -2.3000E-01
 -5.3000E-01  1.0863E+00 -2.3000E-01
 -5.3000E-01  1.0924E+00 -2.3000E-01
 -5.3610E-01  1.0950E+00 -2.3000E-01
 -5.4480E-01  1.0950E+00 -2.3000E-01
 -5.6670E-01  1.0950E+00 -2.3000E-01
 -5.7540E-01  1.0950E+00 -2.3000E-01
 -5.9730E-01  1.0950E+00 -2.3000E-01
 -6.0600E-01  1.0950E+00 -2.3000E-01
 -6.2790E-01  1.0950E+00 -2.3000E-01
 -6.3660E-01  1.0950E+00 -2.3000E-01
 -6.5850E-01  1.0950E+00 -2.3000E-01
 -6.6720E-01  1.0950E+00 -2.3000E-01
 -6.8910E-01  1.0950E+00 -2.3000E-01
 -6.9780E-01  1.0950E+00 -2.3000E-01
 -7.1970E-01  1.0950E+00 -2.3000E-01
 -7.2840E-01  1.0950E+00 -2.3000E-01
 -7.5030E-01  1.0950E+00 -2.3000E-01
 -7.5900E-01  1.0950E+00 -2.3000E-01
 -7.8090E-01  1.0950E+00 -2.3000E-01
 -7.8960E-01  1.0950E+00 -2.3000E-01
 -8.1150E-01  1.0950E+00 -2.3000E-01
 -8.2020E-01  1.0950E+00 -2.3000E-01
 -8.4210E-01  1.0950E+00 -2.3000E-01
 -8.5080E-01  1.0950E+00 -2.3000E-01
 -8.7270E-01  1.0950E+00 -2.3000E-01
 -8.8140E-01  1.0950E+00 -2.3000E-01
 -9.0330E-01  1.0950E+00 -2.3000E-01
 -9.1200E-01  1.0950E+00 -2.3000E-01
 -9.3390E-01  1.0950E+00 -2.3000E-01
 -9.4260E-01  1.0950E+00 -2.3000E-01
 -9.6450E-01  1.0950E+00 -2.3000E-01
 -9.7320E-01  1.0950E+00 -2.3000E-01
 -9.9510E-01  1.0950E+00 -2.3000E-01
 -1.0038E+00  1.0950E+00 -2.3000E-01
 -1.0257E+00  1.0950E+00 -2.3000E-01
 -1.0344E+00  1.0950E+00 -2.3000E-01
 -1.0563E+00  1.0950E+00 -2.3000E-01
 -1.0650E+00  1.0950E+00 -2.3000E-01
 -1.0869E+00  1.0950E+00 -2.3000E-01
 -1.0956E+00  1.0950E+00 -2.3000E-01
 -1.1175E+00  1.0950E+00 -2.3000E-01
 -1.1262E+00  1.0950E+00 -2.3000E-01
 -1.1481E+00  1.0950E+00 -2.3000E-01
 -1.1568E+00  1.0950E+00 -2.3000E-01
 -1.1787E+00  1.0950E+00 -2.3000E-01
 -1.1874E+00  1.0950E+00 -2.3000E-01
 -1.2093E+00  1.0950E+00 -2.3000E-01
 -1.2180E+00  1.0950E+00 -2.3000E-01
 -1.2399E+00  1.0950E+00 -2.3000E-01
 -1.2486E+00  1.0950E+00 -2.3000E-01
 -1.2705E+00  1.0950E+00 -2.3000E-01
 -1.2792E+00  1.0950E+00 -2.3000E-01
 -1.3011E+00  1.0950E+00 -2.3000E-01
 -1.3098E+00  1.0950E+00 -2.3000E-01
 -1.3317E+00  1.0950E+00 -2.3000E-01
 -1.3404E+00  1.0950E+00 -2.3000E-01
 -1.3623E+00  1.0950E+00 -2.3000E-01
 -1.3710E+00  1.0950E+00 -2.3000E-01
 -1.3929E+00  1.0950E+00 -2.3000E-01
 -1.4016E+00  1.0950E+00 -2.3000E-01
 -1.4235E+00  1.0950E+00 -2.3000E-01
 -1.4322E+00  1.0950E+00 -2.3000E-01
 -1.4541E+00  1.0950E+00 -2.3000E-01
 -1.4628E+00  1.0950E+00 -2.3000E-01
 -1.4847E+00  1.0950E+00 -2.3000E-01
 -1.4934E+00  1.0950E+00 -2.3000E-01
 -1.5153E+00  1.0950E+00 -2.3000E-01
 -1.5240E+00  1.0950E+00 -2.3000E-01
 -1.5459E+00  1.0950E+00 -2.3000E-01
 -1.5546E+00  1.0950E+00 -2.3000E-01
 -1.5765E+00  1.0950E+00 -2.3000E-01
 -1.5852E+00  1.0950E+00 -2.3000E-01
 -1.6071E+00  1.0950E+00 -2.3000E-01
 -1.6158E+00  1.0950E+00 -2.3000E-01
 -1.6377E+00  1.0950E+00 -2.3000E-01
 -1.6464E+00  1.0950E+00 -2.3000E-01
 -1.6683E+00  1.0950E+00 -2.3000E-01
 -1.6770E+00  1.0950E+00 -2.3000E-01
 -1.6989E+00  1.0950E+00 -2.3000E-01
 -1.7076E+00  1.0950E+00 -2.3000E-01
 -1.7295E+00  1.0950E+00 -2.3000E-01
 -1.7382E+00  1.0950E+00 -2.3000E-01
 -1.7601E+00  1.0950E+00 -2.3000E-01
 -1.7688E+00  1.0950E+00 -2.3000E-01
 -1.7907E+00  1.0950E+00 -2.3000E-01
 -1.7994E+00  1.0950E+00 -2.3000E-01
 -1.8213E+00  1.0950E+00 -2.3000E-01
 -1.8300E+00  1.0950E+00 -2.3000E-01
 -1.8519E+00  1.0950E+00 -2.3000E-01
 -1.8606E+00  1.0950E+00 -2.3000E-01
 -1.8825E+00  1.0950E+00 -2.3000E-01
 -1.8912E+00  1.0950E+00 -2.3000E-01
 -1.9131E+00  1.0950E+00 -2.3000E-01
 -1.9218E+00  1.0950E+00 -2.3000E-01
 -1.9437E+00  1.0950E+00 -2.3000E-01
 -1.9524E+00  1.0950E+00 -2.3000E-01
 -1.9743E+00  1.0950E+00 -2.3000E-01
 -1.9830E+00  1.0950E+00 -2.3000E-01
 -2.0049E+00  1.0950E+00 -2.3000E-01
 -2.0136E+00  1.0950E+00 -2.3000E-01
 -2.0355E+00  1.0950E+00 -2.3000E-01
 -2.0442E+00  1.0950E+00 -2.3000E-01
 -2.0661E+00  1.0950E+00 -2.3000E-01
 -2.0748E+00  1.0950E+00 -2.3000E-01
 -2.0967E+00  1.0950E+00 -2.3000E-01
 -2.1054E+00  1.0950E+00 -2.3000E-01
 -2.1273E+00  1.0950E+00 -2.3000E-01
 -2.1360E+00  1.0950E+00 -2.3000E-01
 -2.1579E+00  1.0950E+00 -2.3000E-01
 -2.1666E+00  1.0950E+00 -2.3000E-01
 -2.1885E+00  1.0950E+00 -2.3000E-01
 -2.1972E+00  1.0950E+00 -2.3000E-01
 -2.2191E+00  1.0950E+00 -2.3000E-01
 -2.2278E+00  1.0950E+00 -2.3000E-01
 -2.2497E+00  1.0950E+00 -2.3000E-01
 -2.2584E+00  1.0950E+00 -2.3000E-01
 -2.2803E+00  1.0950E+00 -2.3000E-01
 -2.2890E+00  1.0950E+00 -2.3000E-01
 -2.3109E+00  1.0950E+00 -2.3000E-01
 -2.3196E+00  1.0950E+00 -2.3000E-01
 -2.3415E+00  1.0950E+00 -2.3000E-01
 -2.3502E+00  1.0950E+00 -2.3000E-01
 -2.3721E+00  1.0950E+00 -2.3000E-01
 -2.3808E+00  1.0950E+00 -2.3000E-01
 -2.4027E+00  1.0950E+00 -2.3000E-01
 -2.4114E+00  1.0950E+00 -2.3000E-01
 -2.4333E+00  1.0950E+00 -2.3000E-01
 -2.4420E+00  1.0950E+00 -2.3000E-01
 -2.4639E+00  1.0950E+00 -2.3000E-01
 -2.4726E+00  1.0950E+00 -2.3000E-01
 -2.4945E+00  1.0950E+00 -2.3000E-01
 -2.5032E+00  1.0950E+00 -2.3000E-01
 -2.5251E+00  1.0950E+00 -2.3000E-01
 -2.5338E+00  1.0950E+00 -2.3000E-01
 -2.5557E+00  1.0950E+00 -2.3000E-01
 -2.5644E+00  1.0950E+00 -2.3000E-01
 -2.5863E+00  1.0950E+00 -2.3000E-01
 -2.5950E+00  1.0950E+00 -2.3000E-01
 -2.6169E+00  1.0950E+00 -2.3000E-01
 -2.6256E+00  1.0950E+00 -2.3000E-01
 -2.6475E+00  1.0950E+00 -2.3000E-01
 -2.6562E+00  1.0950E+00 -2.3000E-01
 -2.6781E+00  1.0950E+00 -2.3000E-01
 -2.6868E+00  1.0950E+00 -2.3000E-01
 -2.7087E+00  1.0950E+00 -2.3000E-01
 -2.7174E+00  1.0950E+00 -2.3000E-01
 -2.7393E+00  1.0950E+00 -2.3000E-01
 -2.7480E+00  1.0950E+00 -2.3000E-01
 -2.7699E+00  1.0950E+00 -2.3000E-01
 -2.7786E+00  1.0950E+00 -2.3000E-01
 -2.8005E+00  1.0950E+00 -2.3000E-01
 -2.8092E+00  1.0950E+00 -2.3000E-01
 -2.8311E+00  1.0950E+00 -2.3000E-01
 -2.8398E+00  1.0950E+00 -2.3000E-01
 -2.8617E+00  1.0950E+00 -2.3000E-01
 -2.8704E+00  1.0950E+00 -2.3000E-01
 -2.8923E+00  1.0950E+00 -2.3000E-01
 -2.9010E+00  1.0950E+00 -2.3000E-01
 -2.9229E+00  1.0950E+00 -2.3000E-01
 -2.9316E+00  1.0950E+00 -2.3000E-01
 -2.9535E+00  1.0950E+00 -2.3000E-01
 -2.9622E+00  1.0950E+00 -2.3000E-01
 -2.9841E+00  1.0950E+00 -2.3000E-01
 -2.9928E+00  1.0950E+00 -2.3000E-01
 -3.0147E+00  1.0950E+00 -2.3000E-01
 -3.0147E+00  1.0863E+00 -2.3000E-01
 -3.0147E+00  1.0557E+00 -2.3000E-01
 -3.0147E+00  1.0251E+00 -2.3000E-01
 -3.0147E+00  9.9450E-01 -2.3000E-01
 -3.0147E+00  9.6390E-01 -2.3000E-01
 -3.0147E+00  9.3330E-01 -2.3000E-01
 -3.0147E+00  9.0270E-01 -2.3000E-01
 -3.0147E+00  8.7210E-01 -2.3000E-01
 -3.0147E+00  8.4150E-01 -2.3000E-01
 -3.0147E+00  8.1090E-01 -2.3000E-01
 -3.0147E+00  7.8030E-01 -2.3000E-01
 -3.0147E+00  7.4970E-01 -2.3000E-01
 -3.0147E+00  7.1910E-01 -2.3000E-01
 -3.0147E+00  6.8850E-01 -2.3000E-01
 -3.0147E+00  6.5790E-01 -2.3000E-01
 -3.0147E+00  6.2730E-01 -2.3000E-01
 -3.0147E+00  5.9670E-01 -2.3000E-01
 -3.0147E+00  5.6610E-01 -2.3000E-01
 -3.0147E+00  5.3550E-01 -2.3000E-01
 -3.0147E+00  5.0490E-01 -2.3000E-01
 -3.0147E+00  4.7430E-01 -2.3000E-01
 -3.0147E+00  4.4370E-01 -2.3000E-01
 -3.0147E+00  4.1310E-01 -2.3000E-01
 -3.0147E+00  3.8250E-01 -2.3000E-01
 -3.0147E+00  3.5190E-01 -2.3000E-01
 -3.0147E+00  3.2130E-01 -2.3000E-01
 -3.0147E+00  2.9070E-01 -2.3000E-01
 -3.0147E+00  2.6010E-01 -2.3000E-01
 -3.0147E+00  2.2950E-01 -2.3000E-01
 -3.0147E+00  1.9890E-01 -2.3000E-01
 -3.0147E+00  1.6830E-01 -2.3000E-01
 -3.0147E+00  1.3770E-01 -2.3000E-01
 -3.0147E+00  1.0710E-01 -2.3000E-01
 -3.0147E+00  7.6500E-02 -2.3000E-01
 -3.0147E+00  4.5900E-02 -2.3000E-01
 -3.0147E+00  1.5300E-02 -2.3000E-01
 -3.0147E+00 -1.5300E-02 -2.3000E-01
 -3.0147E+00 -4.5900E-02 -2.3000E-01
 -3.0147E+00 -7.6500E-02 -2.3000E-01
 -3.0147E+00 -1.0710E-01 -2.3000E-01
 -3.0147E+00 -1.3770E-01 -2.3000E-01
 -3.0147E+00 -1.6830E-01 -2.3000E-01
 -3.0147E+00 -1.9890E-01 -2.3000E-01
 -3.0147E+00 -2.2950E-01 -2.3000E-01
 -3.0147E+00 -2.6010E-01 -2.3000E-01
 -3.0147E+00 -2.9070E-01 -2.3000E-01
 -3.0147E+00 -3.2130E-01 -2.3000E-01
 -3.0147E+00 -3.5190E-01 -2.3000E-01
 -3.0147E+00 -3.8250E-01 -2.3000E-01
 -3.0147E+00 -4.1310E-01 -2.3000E-01
 -3.0147E+00 -4.4370E-01 -2.3000E-01
 -3.0147E+00 -4.7430E-01 -2.3000E-01
 -3.0147E+00 -5.0490E-01 -2.3000E-01
 -3.0147E+00 -5.3550E-01 -2.3000E-01
 -3.0147E+00 -5.6610E-01 -2.3000E-01
 -3.0147E+00 -5.9670E-01 -2.3000E-01
 -3.0147E+00 -6.2730E-01 -2.3000E-01
 -3.0147E+00 -6.5790E-01 -2.3000E-01
 -3.0147E+00 -6.8850E-01 -2.3000E-01
 -3.0147E+00 -7.1910E-01 -2.3000E-01
 -3.0147E+00 -7.4970E-01 -2.3000E-01
 -3.0147E+00 -7.8030E-01 -2.3000E-01
 -3.0147E+00 -8.1090E-01 -2.3000E-01
 -3.0147E+00 -8.4150E-01 -2.3000E-01
 -3.0147E+00 -8.7210E-01 -2.3000E-01
POLYGONS          2        890
528 0 1 2 3 4 5 6 7 8 9 10 11 12 13 14 15 16 17 18 19
 20 21 22 23 24 25 26 27 28 29 30 31 32 33 34 35 36 37 38 39
 40 41 42 43 44 45 46 47 48 49 50 51 52 53 54 55 56 57 58 59
 60 61 62 63 64 65 66 67 68 69 70 71 72 73 74 75 76 77 78 79
 80 81 82 83 84 85 86 87 88 89 90 91 92 93 94 95 96 97 98 99
 100 101 102 103 104 105 106 107 108 109 110 111 112 113 114 115 116 117 118 119
 120 121 122 123 124 125 126 127 128 129 130 131 132 133 134 135 136 137 138 139
 140 141 142 143 144 145 146 147 148 149 150 151 152 153 154 155 156 157 158 159
 160 161 162 163 164 165 166 167 168 169 170 171 172 173 174 175 176 177 178 179
 180 181 182 183 184 185 186 187 188 189 190 191 192 193 194 195 196 197 198 199
 200 201 202 203 204 205 206 207 208 209 210 211 212 213 214 215 216 217 218 219
 220 221 222 223 224 225 226 227 228 229 230 231 232 233 234 235 236 237 238 239
 240 241 242 243 244 245 246 247 248 249 250 251 252 253 254 255 256 257 258 259
 260 261 262 263 264 265 266 267 268 269 270 271 272 273 274 275 276 277 278 279
 280 281 282 283 284 285 286 287 288 289 290 291 292 293 294 295 296 297 298 299
 300 301 302 303 304 305 306 307 308 309 310 311 312 313 314 315 316 317 318 319
 320 321 322 323 324 325 326 327 328 329 330 331 332 333 334 335 336 337 338 339
 340 341 342 343 344 345 346 347 348 349 350 351 352 353 354 355 356 357 358 359
 360 361 362 363 364 365 366 367 368 369 370 371 372 373 374 375 376 377 378 379
 380 381 382 383 384 385 386 387 388 389 390 391 392 393 394 395 396 397 398 399
 400 401 402 403 404 405 406 407 408 409 410 411 412 413 414 415 416 417 418 419
 420 421 422 423 424 425 426 427 428 429 430 431 432 433 434 435 436 437 438 439
 440 441 442 443 444 445 446 447 448 449 450 451 452 453 454 455 456 457 458 459
 460 461 462 463 464 465 466 467 468 469 470 471 472 473 474 475 476 477 478 479
 480 481 482 483 484 485 486 487 488 489 490 491 492 493 494 495 496 497 498 499
 500 501 502 503 504 505 506 507 508 509 510 511 512 513 514 515 516 517 518 519
 520 521 522 523 524 525 526 527
360 528 529 530 531 532 533 534 535 536 537 538 539 540 541 542 543 544 545 546 547
 548 549 550 551 552 553 554 555 556 557 558 559 560 561 562 563 564 565 566 567
 568 569 570 571 572 573 574 575 576 577 578 579 580 581 582 583 584 585 586 587
 588 589 590 591 592 593 594 595 596 597 598 599 600 601 602 603 604 605 606 607
 608 609 610 611 612 613 614 615 616 617 618 619 620 621 622 623 624 625 626 627
 628 629 630 631 632 633 634 635 636 637 638 639 640 641 642 643 644 645 646 647
 648 649 650 651 652 653 654 655 656 657 658 659 660 661 662 663 664 665 666 667
 668 669 670 671 672 673 674 675 676 677 678 679 680 681 682 683 684 685 686 687
 688 689 690 691 692 693 694 695 696 697 698 699 700 701 702 703 704 705 706 707
 708 709 710 711 712 713 714 715 716 717 718 719 720 721 722 723 724 725 726 727
 728 729 730 731 732 733 734 735 736 737 738 739 740 741 742 743 744 745 746 747
 748 749 750 751 752 753 754 755 756 757 758 759 760 761 762 763 764 765 766 767
 768 769 770 771 772 773 774 775 776 777 778 779 780 781 782 783 784 785 786 787
 788 789 790 791 792 793 794 795 796 797 798 799 800 801 802 803 804 805 806 807
 808 809 810 811 812 813 814 815 816 817 818 819 820 821 822 823 824 825 826 827
 828 829 830 831 832 833 834 835 836 837 838 839 840 841 842 843 844 845 846 847
 848 849 850 851 852 853 854 855 856 857 858 859 860 861 862 863 864 865 866 867
 868 869 870 871 872 873 874 875 876 877 878 879 880 881 882 883 884 885 886 887
